<?xml version="1.0" encoding="UTF-8"?>
<svg version="1.1" viewBox="0 0 2000 2000" width="500" height="500" xmlns="http://www.w3.org/2000/svg">
<path transform="translate(720,596)" d="m0 0h11l26 3 26 5 25 7 21 8 29 14 18 10 15 10 16 12 16 13 13 12 21 21 7 8 14 18 13 18 13 21 9 16 12 23 8 18 2-2 8-20 9-17 6-11 10-17 8-12 13-18 11-14 12-13 11-12 17-16 11-10 13-10 17-12 15-9 25-14 29-12 25-8 22-5 28-4 22-1 10 19 11 23 7 21 9 36 4 23 3 29v44l-3 31-4 23-9 33-9 25-9 21-13 25-16 24-11 15-8 10-9 11-14 15-8 7-8 8-14 11-11 9-16 11-20 12-22 12-33 13-24 8-25 6-30 5-11 1h-64l-30-4-24-5-29-9-22-8-20-9-19-10-24-15-16-12-16-13-10-9-29-29-13-17-13-18-12-19-14-27-9-21-9-25-7-25-5-26-3-25v-67l5-33 6-25 8-27 6-16 17-35zm41 71-5 12-7 24-5 27-2 24v22l2 32 4 24 8 29 8 21 12 26 12 20 10 14 13 16 9 10 7 8 9 9 8 7 16 13 15 10 19 11 23 12 26 10 19 5 2-1-7-7-7-8-12-12-9-11-12-14-10-13-14-19-14-21-17-28-12-22-12-24-14-32-10-28-7-21 1-1 13 25 16 27 19 28 12 16 9 11 11 13 9 11 11 12 30 30 8 7 12 11 14 11 26 20h2l-2-36-3-30-5-26-7-28-9-27-11-26-14-27-13-21-11-16-9-11-9-10-7-8-10-10-8-7-14-12-17-12-25-15-19-9-31-11-13-4zm541 1-24 7-25 10-16 8-14 8-11 7-16 12-15 13-8 7-7 8-15 15-13 17-12 18-9 15-14 26-12 28-11 34-8 34-4 29-1 10v37h3l14-10 14-11 11-9 24-22 33-33 7-8 12-14 9-11 14-18 24-36 12-20 8-14 7-14-2 10-11 30-10 25-7 15-8 16-12 23-13 22-15 24-12 17-9 12-10 13-12 14-9 11-10 10-7 8-11 11 3 1 22-6 20-8 19-9 20-11 18-12 13-10 20-18 13-13 7-8 11-14 11-15 14-24 12-26 8-22 7-27 5-34 1-20v-15l-2-25-5-30-7-27-4-11z" fill="#158224"/>
<path transform="translate(1012,412)" d="m0 0h40l35 3 22 4 30 8 24 8 25 11 23 12 14 9 19 13 13 10 13 11 10 9 8 7 7 8 13 15 11 13 6 8 1 3-30 5-36 9-6 1-12-11-10-11-8-7-10-9-24-16-13-8-18-10-23-10-25-8-26-6-23-3-19-1h-23l-19 1-26 4-24 6-27 9-29 14-21 13-12 8-14 11-10 9-8 7-3 3h-2l-2 4-11 11-9-2-32-8-30-5 1-4 13-16 11-13 11-12 14-14 11-9 9-8 18-13 15-10 19-11 23-12 29-11 27-8 23-6z" fill="#DEAE25"/>
<path transform="translate(1021,569)" d="m0 0h23l12 3 12 6 13 11 8 11 6 13 3 14v14l-3 14-8 16-9 10-11 8-8 5-13 3-6 1h-13l-15-3-16-8-10-9-7-9-7-14-3-10-1-13 2-15 5-12 6-10 9-10 10-8 11-5z" fill="#DEAE25"/>
<path transform="translate(844,1433)" d="m0 0 3 1 1 37v31l-1 1h-7l-2-49-18 30-7 12-4-1-9-14-14-24-1-3h-2v49h-8v-68l4-1 5 5 24 40 4 4 15-26 10-16 5-7z" fill="#19A267"/>
<path transform="translate(1043,1434)" d="m0 0h28l11 2 8 4 5 6 3 9-1 12-4 6-8 7 1 5 10 14 1 5-7-1-7-8-7-10v-2h-22l-2 1-1 19h-8l-1-15v-53zm8 7v34h26l8-4 4-6v-12l-4-8-7-3-8-1z" fill="#19A267"/>
<path transform="translate(1135,1434)" d="m0 0h17l9 3 8 5 7 8 4 8 1 4v13l-3 10-6 8-8 7-7 3-5 1h-16l-10-3-9-7-6-9-3-8v-16l4-10 9-10 8-5zm5 7-10 3-6 4-6 9-2 5v15l5 10 8 7 9 3h13l8-3 7-5 5-8 1-3v-16l-3-8-7-8-8-4-5-1z" fill="#19A267"/>
<path transform="translate(1024,1298)" d="m0 0h19l10 4 8 6 6 8 4 9 1 9-2 10-4 8-9 10-9 5-5 1h-17l-10-3-9-7-7-10-2-6v-18l6-12 4-5 9-6zm6 7-10 3-8 6-5 10-1 4v12l2 7 9 10 11 4h14l8-3 8-7 4-8 1-4v-9l-2-9-6-8-9-6-6-2z" fill="#19A267"/>
<path transform="translate(714,1434)" d="m0 0h17l10 4 8 6 7 10 3 8v14l-3 9-7 9-7 6-7 3-5 1h-15l-9-2-9-6-7-8-4-11v-16l5-12 9-9 10-5zm2 7-10 4-6 5-4 7-2 8 1 15 4 7 8 7 8 3h14l8-3 8-6 5-9 1-13-2-8-4-7-7-6-10-4z" fill="#19A267"/>
<path transform="translate(1482,1298)" d="m0 0h18l10 4 8 6 7 10 3 9v13l-4 11-9 10-8 5-8 2h-16l-10-3-9-7-6-9-3-8v-15l4-11 7-9 10-6zm5 7-10 3-8 7-5 10-1 4v12l3 7 7 8 8 4 4 1h15l10-5 7-8 3-10v-9l-3-10-7-8-7-4-6-2z" fill="#19A267"/>
<path transform="translate(1389,1298)" d="m0 0h32l10 3 8 7 4 7 1 9-2 8-6 8-5 5 2 5 7 11 3 4-1 3-6-1-8-10-7-10h-24v20h-8l-1-32v-17zm12 7-4 3-1 11 1 17 1 3 2 1h18l9-3 7-6 2-9-2-8-4-5-6-3-4-1z" fill="#18A166"/>
<path transform="translate(1008,1150)" d="m0 0h12l9 2 10 6 6 7 5 10 1 4v12l-3 10-7 9-9 7-5 2-6 1h-15l-10-3-10-8-6-10-2-6v-16l4-9 6-8 8-6 7-3zm-1 7-10 4-7 7-4 10v16l5 10 9 7 10 3h9l10-3 10-9 4-11v-12l-4-10-4-5-10-6-3-1z" fill="#158327"/>
<path transform="translate(921,1150)" d="m0 0h16l16 2 6 4 6 7 3 9-1 10-6 9-8 5 2 4 10 14 2 3v3l-7-1-8-10-7-10h-24v19l-2 2-6-1v-68zm0 7-1 1v33l1 1h21l9-2 7-6 2-4v-11l-5-8-6-3-5-1z" fill="#158326"/>
<path transform="translate(1254,1434)" d="m0 0h48v7l-38 1-1 22 34 1 1 1v5l-2 1h-33v24l40 1 1 6-22 1h-26l-2-1z" fill="#19A267"/>
<path transform="translate(1442,1434)" d="m0 0h6l1 1v68h-8v-31h-41l-1 31h-8v-68h8l1 14v16l40-1 1-29z" fill="#19A267"/>
<path transform="translate(987,1434)" d="m0 0h18l11 4 5 5v5l-6-1-9-4-4-1h-11l-12 5-7 8-3 8v14l5 10 7 6 8 3h16l7-3 2-4 1-19 1-1h6l1 3v20l-3 5-5 4-5 2-6 1h-15l-11-3-8-6-6-8-4-9v-17l4-10 9-10 8-5z" fill="#19A267"/>
<path transform="translate(1225,1298)" d="m0 0h8v38l-1 13-3 8-8 8-9 3h-15l-10-3-6-5-4-8-2-12v-40l1-1h7l1 1v41l2 11 5 6 7 2h12l8-3 4-6 1-4 1-48z" fill="#19A267"/>
<path transform="translate(1311,1298)" d="m0 0h8l1 50 3 7 6 4 4 1h13l7-3 4-5 2-9 1-44 7-1 1 1v44l-2 9-4 7-8 7-6 2h-17l-9-3-6-5-4-8-2-11v-42z" fill="#19A267"/>
<path transform="translate(912,1298)" d="m0 0h47v7h-39v24h35l1 1v5l-6 1h-29l-1 25h40l2 3v3l-49 1-1-1z" fill="#18A165"/>
<path transform="translate(1263,1150)" d="m0 0 7 1v30h14l28 1 1-31 3-1 4 1v68l-4 1-3-1-1-14 1-17h-43v31l-5 1-3-1v-68z" fill="#15842A"/>
<path transform="translate(617,1299)" d="m0 0h9l1 3v42l3 9 5 5 5 2h14l7-3 4-6 2-10 1-42h8v36l-1 13-3 9-5 6-7 4-5 1h-15l-10-3-7-6-4-9-1-4-1-16z" fill="#19A267"/>
<path transform="translate(918,1433)" d="m0 0 5 1 12 25 13 29 6 14-1 2-7-1-7-15-2-1h-37l-4 8-3 8-6 1-2-1 3-9 11-25 16-33zm1 13-2 1-9 20-5 12 2 1h30l-1-5-11-25z" fill="#19A267"/>
<path transform="translate(1133,1150)" d="m0 0h38l1 6-1 1h-39v23l1 1 35 1v5l-2 1h-35v25l42 1 1 5-12 1h-37l-1-1v-68z" fill="#158429"/>
<path transform="translate(859,1150)" d="m0 0h15l10 3 6 4 1 7-6-1-8-4-3-1h-15l-9 4-5 4-4 6-2 6v16l4 8 1 3 4 2 7 4 7 2h12l8-3 2-3v-19l2-3h5l1 1v24l-4 5-9 4-6 1h-14l-11-3-9-7-6-9-3-8v-16l4-9 4-6 8-7 9-4z" fill="#158326"/>
<path transform="translate(1341,1434)" d="m0 0h18l11 4 5 6-1 5-6-2-8-4-3-1h-11l-11 4-7 6-4 8-1 5v9l2 8 6 8 8 5 5 1h14l8-3 4-3 5 1-1 5-6 5-5 2-6 1h-15l-10-3-6-4-8-9-4-9-1-6v-9l3-10 8-11 9-6z" fill="#19A267"/>
<path transform="translate(789,1149)" d="m0 0 4 2 8 16 13 28 10 23-1 2h-5l-3-3-6-14-1-1h-39l-3 9-4 8-5 1-2-1 3-9 15-32 9-21 4-6zm0 10-6 12-10 22v2l2 1h30l-1-6-11-26-3-5z" fill="#158327"/>
<path transform="translate(641,1434)" d="m0 0h18l10 4 5 5 1 3-1 2-6-1-11-5h-14l-10 5-5 5-3 4-2 8v11l2 8 7 8 7 4 4 1h15l8-3 4-3h3l2 4-4 5-8 4-5 1h-16l-10-3-8-6-6-7-4-10v-18l6-12 4-5 11-7z" fill="#19A267"/>
<path transform="translate(575,1297)" d="m0 0 16 2 9 5 2 2v5l-4 1-10-5-4-1h-13l-9 4-6 5-4 8-1 5v12l3 9 7 7 6 3 4 1h15l7-3 4-3h4l1 6-8 6-8 2h-16l-10-3-8-6-6-8-4-9v-17l4-10 6-8 9-6 8-3z" fill="#19A267"/>
<path transform="translate(1112,1298)" d="m0 0h49l-1 7-5 1-34-1v27h25l9 6v1h-34v27l-1 1h-7l-1-1z" fill="#18A166"/>
<path transform="translate(833,1297)" d="m0 0 7 2 4 6 13 30 8 19v2h3l3-9 12-27 9-20 2-2h6l-1 5-10 24-12 27-7 13-4 1-5-3-9-19-18-42z" fill="#19A267"/>
<path transform="translate(1213,1150)" d="m0 0h14l10 3 6 4 2 7-3 1-12-6-3-1h-13l-10 4-5 4-4 7-2 5-1 10 2 9 4 6 8 7 10 3h10l11-4 4-3 4 1-2 5-8 6-8 2h-15l-10-3-9-7-7-11-2-9v-11l3-10 6-8 8-7z" fill="#158327"/>
<path transform="translate(798,1297)" d="m0 0 4 2v6l-25 1v61l-4 1-5-2-1-60-22-1-1-1v-5l1-1z" fill="#19A267"/>
<path transform="translate(1186,1434)" d="m0 0h57v6l-1 1-24 1v61h-8l-1-53v-9h-22l-2-3z" fill="#19A267"/>
<path transform="translate(1243,1298)" d="m0 0h57v7l-24 2-1 60h-8v-61l-23-1-1-1z" fill="#19A267"/>
<path transform="translate(703,1298)" d="m0 0 3 3v41l-1 18 39 1 1 6-43 1-5-1v-68z" fill="#19A267"/>
<path transform="translate(1108,1150)" d="m0 0 4 1v6h-24v62h-7l-1-1v-27l1-6 3-2-4-4v-22h-23l-1-1v-5z" fill="#158428"/>
<path transform="translate(813,1298)" d="m0 0h7v69h-7l-1-2v-66z" fill="#18A064"/>
<path transform="translate(1066,978)" d="m0 0h1l1 33v3l-4-1 1-4z" fill="#19A267"/>
<path transform="translate(1435,1362)" d="m0 0h6l2 5-4 1-5-3z" fill="#158831"/>
<path transform="translate(960,1048)" d="m0 0 8 4v4l-8-1v-2l-2-1h5z" fill="#19A267"/>
</svg>
